HIERARCHY
ROOT Hips
{
    OFFSET   0.000000   0.000000   0.000000
    CHANNELS 6 Xposition Yposition Zposition Zrotation Xrotation Yrotation
    JOINT Chest
    {
        OFFSET   0.000000   8.007240   0.000000
        CHANNELS 3 Zrotation Xrotation Yrotation
        JOINT Chest2
        {
            OFFSET   0.000000  22.077100   0.000000
            CHANNELS 3 Zrotation Xrotation Yrotation
            JOINT Neck
            {
                OFFSET   0.000000  23.254800   0.000000
                CHANNELS 3 Zrotation Xrotation Yrotation
                JOINT Head
                {
                    OFFSET   0.000000  14.370000   1.956600
                    CHANNELS 3 Zrotation Xrotation Yrotation
                    End Site
                    {
                        OFFSET   0.000000  19.566000   0.000000
                    }
                }
            }
            JOINT LeftCollar
            {
                OFFSET   3.911900  19.017000  -0.467064
                CHANNELS 3 Zrotation Xrotation Yrotation
                JOINT LeftShoulder
                {
                    OFFSET  10.383700   0.000000   0.000000
                    CHANNELS 3 Zrotation Xrotation Yrotation
                    JOINT LeftElbow
                    {
                        OFFSET  26.662100   0.001476   0.000517
                        CHANNELS 3 Zrotation Xrotation Yrotation
                        JOINT LeftWrist
                        {
                            OFFSET  28.869000  -0.000025  -0.000106
                            CHANNELS 3 Zrotation Xrotation Yrotation
                            JOINT LeftFinger0
                            {
                                OFFSET   2.044660  -2.323460   3.252850
                                CHANNELS 3 Zrotation Xrotation Yrotation
                                JOINT LeftFinger01
                                {
                                    OFFSET   3.088130   0.000000   0.000000
                                    CHANNELS 3 Zrotation Xrotation Yrotation
                                    JOINT LeftFinger02
                                    {
                                        OFFSET   2.639460   0.000000   0.000000
                                        CHANNELS 3 Zrotation Xrotation Yrotation
                                        End Site
                                        {
                                            OFFSET   2.582190   0.000000   0.000000
                                        }
                                    }
                                }
                            }
                            JOINT LeftFinger1
                            {
                                OFFSET   8.364480   0.000000   3.252850
                                CHANNELS 3 Zrotation Xrotation Yrotation
                                JOINT LeftFinger11
                                {
                                    OFFSET   4.646930   0.000000   0.000000
                                    CHANNELS 3 Zrotation Xrotation Yrotation
                                    JOINT LeftFinger12
                                    {
                                        OFFSET   2.323460   0.000000   0.000000
                                        CHANNELS 3 Zrotation Xrotation Yrotation
                                        End Site
                                        {
                                            OFFSET   2.273050   0.000000   0.000000
                                        }
                                    }
                                }
                            }
                            JOINT LeftFinger2
                            {
                                OFFSET   8.364490   0.000015   1.078090
                                CHANNELS 3 Zrotation Xrotation Yrotation
                                JOINT LeftFinger21
                                {
                                    OFFSET   5.111620   0.000000   0.000000
                                    CHANNELS 3 Zrotation Xrotation Yrotation
                                    JOINT LeftFinger22
                                    {
                                        OFFSET   2.788160   0.000016   0.000000
                                        CHANNELS 3 Zrotation Xrotation Yrotation
                                        End Site
                                        {
                                            OFFSET   2.727660   0.000000   0.000000
                                        }
                                    }
                                }
                            }
                            JOINT LeftFinger3
                            {
                                OFFSET   7.899780   0.000017  -1.078090
                                CHANNELS 3 Zrotation Xrotation Yrotation
                                JOINT LeftFinger31
                                {
                                    OFFSET   4.646930   0.000000   0.000000
                                    CHANNELS 3 Zrotation Xrotation Yrotation
                                    JOINT LeftFinger32
                                    {
                                        OFFSET   2.323470   0.000000   0.000000
                                        CHANNELS 3 Zrotation Xrotation Yrotation
                                        End Site
                                        {
                                            OFFSET   2.273050   0.000000   0.000000
                                        }
                                    }
                                }
                            }
                            JOINT LeftFinger4
                            {
                                OFFSET   7.435090   0.000000  -3.252850
                                CHANNELS 3 Zrotation Xrotation Yrotation
                                JOINT LeftFinger41
                                {
                                    OFFSET   3.717550   0.000000   0.000000
                                    CHANNELS 3 Zrotation Xrotation Yrotation
                                    JOINT LeftFinger42
                                    {
                                        OFFSET   1.858770   0.000000   0.000000
                                        CHANNELS 3 Zrotation Xrotation Yrotation
                                        End Site
                                        {
                                            OFFSET   1.818440   0.000000   0.000000
                                        }
                                    }
                                }
                            }
                        }
                    }
                }
            }
            JOINT RightCollar
            {
                OFFSET  -3.911900  19.017000  -0.467063
                CHANNELS 3 Zrotation Xrotation Yrotation
                JOINT RightShoulder
                {
                    OFFSET -10.383700   0.000019   0.000000
                    CHANNELS 3 Zrotation Xrotation Yrotation
                    JOINT RightElbow
                    {
                        OFFSET -26.662100   0.001175   0.000102
                        CHANNELS 3 Zrotation Xrotation Yrotation
                        JOINT RightWrist
                        {
                            OFFSET -28.869000   0.000016  -0.000079
                            CHANNELS 3 Zrotation Xrotation Yrotation
                            JOINT RightFinger0
                            {
                                OFFSET  -2.044660  -2.323490   3.252850
                                CHANNELS 3 Zrotation Xrotation Yrotation
                                JOINT RightFinger01
                                {
                                    OFFSET  -3.088140   0.000000   0.000000
                                    CHANNELS 3 Zrotation Xrotation Yrotation
                                    JOINT RightFinger02
                                    {
                                        OFFSET  -2.639460   0.000000   0.000000
                                        CHANNELS 3 Zrotation Xrotation Yrotation
                                        End Site
                                        {
                                            OFFSET  -2.582190   0.000000   0.000000
                                        }
                                    }
                                }
                            }
                            JOINT RightFinger1
                            {
                                OFFSET  -8.364480   0.000000   3.252850
                                CHANNELS 3 Zrotation Xrotation Yrotation
                                JOINT RightFinger11
                                {
                                    OFFSET  -4.646930   0.000000   0.000000
                                    CHANNELS 3 Zrotation Xrotation Yrotation
                                    JOINT RightFinger12
                                    {
                                        OFFSET  -2.323470   0.000000   0.000000
                                        CHANNELS 3 Zrotation Xrotation Yrotation
                                        End Site
                                        {
                                            OFFSET  -2.273050   0.000000   0.000000
                                        }
                                    }
                                }
                            }
                            JOINT RightFinger2
                            {
                                OFFSET  -8.364480   0.000000   1.078090
                                CHANNELS 3 Zrotation Xrotation Yrotation
                                JOINT RightFinger21
                                {
                                    OFFSET  -5.111620   0.000000   0.000000
                                    CHANNELS 3 Zrotation Xrotation Yrotation
                                    JOINT RightFinger22
                                    {
                                        OFFSET  -2.788160   0.000000   0.000000
                                        CHANNELS 3 Zrotation Xrotation Yrotation
                                        End Site
                                        {
                                            OFFSET  -2.727660   0.000000   0.000000
                                        }
                                    }
                                }
                            }
                            JOINT RightFinger3
                            {
                                OFFSET  -7.899780   0.000000  -1.078090
                                CHANNELS 3 Zrotation Xrotation Yrotation
                                JOINT RightFinger31
                                {
                                    OFFSET  -4.646930   0.000000   0.000000
                                    CHANNELS 3 Zrotation Xrotation Yrotation
                                    JOINT RightFinger32
                                    {
                                        OFFSET  -2.323470   0.000000   0.000000
                                        CHANNELS 3 Zrotation Xrotation Yrotation
                                        End Site
                                        {
                                            OFFSET  -2.273050   0.000000   0.000000
                                        }
                                    }
                                }
                            }
                            JOINT RightFinger4
                            {
                                OFFSET  -7.435090   0.000000  -3.252850
                                CHANNELS 3 Zrotation Xrotation Yrotation
                                JOINT RightFinger41
                                {
                                    OFFSET  -3.717550   0.000000   0.000000
                                    CHANNELS 3 Zrotation Xrotation Yrotation
                                    JOINT RightFinger42
                                    {
                                        OFFSET  -1.858770   0.000000   0.000000
                                        CHANNELS 3 Zrotation Xrotation Yrotation
                                        End Site
                                        {
                                            OFFSET  -1.818440   0.000000   0.000000
                                        }
                                    }
                                }
                            }
                        }
                    }
                }
            }
        }
    }
    JOINT LeftHip
    {
        OFFSET   9.783040   0.000000   0.000000
        CHANNELS 3 Zrotation Xrotation Yrotation
        JOINT LeftKnee
        {
            OFFSET   0.000032 -41.789100  -0.002222
            CHANNELS 3 Zrotation Xrotation Yrotation
            JOINT LeftAnkle
            {
                OFFSET   0.000087 -41.133200  -0.000135
                CHANNELS 3 Zrotation Xrotation Yrotation
                JOINT LeftToe
                {
                    OFFSET   0.000000  -6.358960  14.674500
                    CHANNELS 3 Zrotation Xrotation Yrotation
                    End Site
                    {
                        OFFSET   0.000000   0.000000   3.913200
                    }
                }
            }
        }
    }
    JOINT RightHip
    {
        OFFSET  -9.783040   0.000000   0.000000
        CHANNELS 3 Zrotation Xrotation Yrotation
        JOINT RightKnee
        {
            OFFSET   0.000047 -41.789100  -0.000896
            CHANNELS 3 Zrotation Xrotation Yrotation
            JOINT RightAnkle
            {
                OFFSET  -0.000117 -41.133300  -0.000248
                CHANNELS 3 Zrotation Xrotation Yrotation
                JOINT RightToe
                {
                    OFFSET   0.000000  -6.358970  14.674500
                    CHANNELS 3 Zrotation Xrotation Yrotation
                    End Site
                    {
                        OFFSET   0.000000   0.000000   3.913200
                    }
                }
            }
        }
    }
}
MOTION
Frames: 5
Frame Time:   0.016667
 -0.454529  89.508200  -7.171670  -2.287130 -10.478600  -0.486030   1.839390   5.658340  -0.737240   3.779970  11.289400  -1.669910   0.131174  -1.137360   0.001874   0.211571  -2.306500   9.625940  -6.209780   2.689470  -2.123650 -70.990900  11.918400  -7.118610  -2.687220  -8.909920 -11.396800   6.264350 -10.283800   9.566120  36.939800  25.725300 -55.258800 -30.419700   0.001172   0.002712 -10.201600   0.001139   0.004640 -36.835300   3.946050  -5.251930 -30.285600  -0.004838   0.006178 -21.194500  -0.006799   0.004979 -28.780200  -0.035342   0.064371 -40.946800  -0.001216   0.003219 -27.275900  -0.003110   0.003300 -27.888000  -3.233380   6.082460 -32.425700  -0.001154   0.001399 -21.595500  -0.000829   0.000671 -32.770200  -3.739710   5.785670 -49.438900  -0.001169   0.000981 -32.926300  -0.001015   0.002048   6.429390  -1.327130   7.737690  68.529800   0.115614  -0.318493  -1.877010  -4.868670   9.798090 -13.120600 -16.599100  -5.583750 -40.077300  30.224700  70.931000  20.087700  -0.000433  -0.004486   5.043860  -0.000151  -0.011891  35.136400   5.626860   7.931040  29.067300  -0.005539  -0.002181  20.347100  -0.006708  -0.001557  30.152100   4.326090   7.398590  45.647900  -0.002628  -0.004517  30.401500  -0.004345  -0.000174  32.476200   3.435510   5.396720  48.956400   0.002870  -0.004644  32.605000  -0.001398  -0.003714  39.676600  -0.980871  -1.182260  59.530100   0.005242  -0.005379  39.647100  -0.001257  -0.007097   2.326430  12.233100   4.105480   1.288700   0.185764  14.608700  -4.917740  -1.951450   5.240880   0.000000   0.000000   0.000000   0.190267   5.463920  -6.092030  -1.243950   8.237630 -14.828700   0.636434  -3.039930   3.081740   0.000000   0.000000   0.000000
 -0.462768  89.508200  -7.157260  -2.286490 -10.482900  -0.481403   1.839470   5.664910  -0.737329   3.780340  11.302500  -1.670450   0.131172  -1.132210   0.001878   0.211583  -2.296120   9.642810  -6.211000   2.679740  -2.130100 -70.985200  11.953400  -7.125270  -2.691360  -8.942050 -11.382800   6.265250 -10.283600   9.571280  36.940100  25.717600 -55.244500 -30.416100   0.001168   0.002718 -10.201700   0.001126   0.004641 -36.824400   3.949140  -5.256680 -30.277100  -0.004831   0.006175 -21.194600  -0.006791   0.004979 -28.780300  -0.008912   0.016235 -40.947800  -0.001211   0.003209 -27.275900  -0.003098   0.003300 -27.893300  -3.208570   6.035460 -32.426600  -0.001140   0.001388 -21.596100  -0.000824   0.000663 -32.781300  -3.712250   5.740670 -49.450700  -0.001166   0.000972 -32.934200  -0.001010   0.002056   6.431880  -1.345050   7.737890  68.515800   0.124710  -0.318116  -1.874880  -4.880970   9.791510 -13.114400 -16.593500  -5.599460 -40.064700  30.209900  70.920100  20.158100  -0.000435  -0.004480   5.079060  -0.000147  -0.011893  35.177500   5.572350   7.852040  29.094400  -0.005543  -0.002174  20.366100  -0.006713  -0.001553  30.181600   4.296370   7.345770  45.686100  -0.002632  -0.004509  30.426900  -0.004352  -0.000175  32.489500   3.435680   5.391280  48.976300   0.002877  -0.004642  32.618200  -0.001389  -0.003710  39.704000  -0.988772  -1.190610  59.571400   0.005256  -0.005373  39.674600  -0.001256  -0.007083   2.329640  12.268200   4.121930   1.285660   0.145653  14.596500  -4.923200  -1.928030   5.233880   0.000000   0.000000   0.000000   0.195419   5.653660  -6.084310  -1.218190   8.060400 -14.832300   0.628496  -3.044200   3.063190   0.000000   0.000000   0.000000
 -0.477314  89.508200  -7.132930  -2.284180 -10.493500  -0.467388   1.839600   5.678470  -0.737427   3.780900  11.329700  -1.671070   0.131158  -1.123570   0.001882   0.210899  -2.278660   9.672270  -6.214460   2.661430  -2.143770 -70.976200  12.006700  -7.137320  -2.697490  -8.988920 -11.363200   6.266490 -10.283400   9.578360  36.939700  25.703100 -55.220200 -30.410300   0.001152   0.002729 -10.202000   0.001105   0.004644 -36.813100   3.954510  -5.264520 -30.268600  -0.004813   0.006164 -21.194600  -0.006770   0.004980 -28.780300   0.017518  -0.031901 -40.954800  -0.001199   0.003182 -27.275900  -0.003067   0.003300 -27.898500  -3.183760   5.988470 -32.433100  -0.001103   0.001356 -21.600400  -0.000814   0.000642 -32.801700  -3.684790   5.694580 -49.477500  -0.001160   0.000950 -32.952100  -0.000998   0.002075   6.436530  -1.378730   7.739010  68.493600   0.145714  -0.317739  -1.868590  -4.902390   9.774570 -13.101600 -16.581300  -5.625090 -40.038200  30.183400  70.906300  20.281200  -0.000444  -0.004471   5.140650  -0.000144  -0.011905  35.260800   5.514490   7.740290  29.155300  -0.005556  -0.002156  20.408700  -0.006730  -0.001542  30.241900   4.265780   7.271030  45.769600  -0.002642  -0.004485  30.482600  -0.004369  -0.000177  32.516300   3.435890   5.380350  49.016200   0.002895  -0.004639  32.644800  -0.001359  -0.003700  39.752900  -1.002880  -1.205480  59.645100   0.005293  -0.005355  39.723600  -0.001256  -0.007052   2.336900  12.331100   4.138830   1.281810   0.075928  14.579400  -4.933870  -1.889420   5.218330  -0.000000   0.000000   0.000000   0.204275   5.929120  -6.075700  -1.181060   7.811080 -14.837600   0.616012  -3.054260   3.027790   0.000000   0.000000  -0.000000
 -0.490850  89.508100  -7.112870  -2.279940 -10.509700  -0.443657   1.839680   5.695300  -0.737367   3.781350  11.363300  -1.671230   0.128084  -1.117400   0.001872   0.207628  -2.266090   9.699080  -6.220330   2.642420  -2.161250 -70.961900  12.039100  -7.152090  -2.704320  -9.011740 -11.354200   6.268890 -10.294700   9.581160  36.937500  25.688300 -55.197600 -30.406100   0.001115   0.002740 -10.202100   0.001095   0.004661 -36.814900   3.959380  -5.270810 -30.270700  -0.004784   0.006143 -21.194700  -0.006737   0.004981 -28.780300   0.012972  -0.023623 -41.000500  -0.001179   0.003141 -27.304300  -0.003018   0.003300 -27.906100  -3.184160   5.988600 -32.488500  -0.001042   0.001307 -21.637300  -0.000801   0.000610 -32.828100  -3.686230   5.693300 -49.517700  -0.001149   0.000919 -32.978800  -0.000980   0.002106   6.441230  -1.413640   7.743910  68.478900   0.174644  -0.319125  -1.858310  -4.920010   9.748050 -13.088900 -16.566400  -5.645680 -39.996500  30.158500  70.908200  20.391800  -0.000462  -0.004465   5.195950  -0.000145  -0.011931  35.378700   5.510800   7.688230  29.249700  -0.005581  -0.002127  20.474800  -0.006761  -0.001521  30.326000   4.264870   7.235810  45.894200  -0.002655  -0.004445  30.565500  -0.004389  -0.000179  32.556800   3.434780   5.363810  49.076500   0.002920  -0.004636  32.685000  -0.001307  -0.003681  39.802600  -1.017270  -1.220620  59.720100   0.005350  -0.005325  39.773500  -0.001260  -0.007009   2.344080  12.407100   4.140000   1.281690  -0.002393  14.573400  -4.943520  -1.852100   5.198480   0.000000   0.000000  -0.000000   0.213788   6.082280  -6.075190  -1.161180   7.699920 -14.839900   0.607716  -3.068910   2.991000   0.000000   0.000000   0.000000
 -0.504993  89.508100  -7.092350  -2.273820 -10.528200  -0.410927   1.839560   5.714330  -0.736824   3.781590  11.401400  -1.671210   0.120412  -1.109410   0.001857   0.198091  -2.249790   9.726640  -6.227600   2.620890  -2.181330 -70.940900  12.065400  -7.161780  -2.715700  -9.027780 -11.351200   6.272960 -10.317800   9.582410  36.934500  25.670700 -55.178500 -30.402000   0.001064   0.002753 -10.202100   0.001081   0.004686 -36.818400   3.964210  -5.276710 -30.273900  -0.004746   0.006116 -21.194800  -0.006693   0.004983 -28.780300   0.005076  -0.009243 -41.065900  -0.001155   0.003088 -27.349900  -0.002955   0.003299 -27.918000  -3.186970   5.989540 -32.568900  -0.000965   0.001243 -21.690900  -0.000784   0.000568 -32.855600  -3.691530   5.693150 -49.558800  -0.001135   0.000878 -33.006200  -0.000957   0.002145   6.446390  -1.453210   7.747960  68.465400   0.210881  -0.325030  -1.843000  -4.941580   9.715260 -13.067900 -16.546100  -5.663070 -39.948600  30.130600  70.907600  20.510000  -0.000483  -0.004449   5.254990  -0.000146  -0.011968  35.488000   5.510440   7.667720  29.338200  -0.005612  -0.002090  20.536700  -0.006800  -0.001495  30.404800   4.264820   7.222540  46.011200  -0.002672  -0.004393  30.643400  -0.004416  -0.000182  32.584000   3.433180   5.352760  49.116700   0.002953  -0.004632  32.711800  -0.001240  -0.003658  39.848200  -1.030500  -1.234500  59.789000   0.005425  -0.005286  39.819400  -0.001267  -0.006955   2.352340  12.455300   4.140480   1.282370  -0.051104  14.569800  -4.959400  -1.830000   5.172430   0.000000   0.000000   0.000000   0.219549   6.149730  -6.075640  -1.152700   7.660860 -14.840600   0.600036  -3.086250   2.947000   0.000000   0.000000  -0.000000
